{
	"asset":{
		"generator":"Khronos glTF Blender I/O v4.3.47",
		"version":"2.0"
	},
	"scene":0,
	"scenes":[
		{
			"name":"Scene",
			"nodes":[
				17
			]
		}
	],
	"nodes":[
		{
			"name":"Exterior Door Steps.001"
		},
		{
			"name":"Exterior Windows.001"
		},
		{
			"name":"Interior Windows.001"
		},
		{
			"children":[
				0,
				1,
				2
			],
			"name":"001"
		},
		{
			"mesh":0,
			"name":"001_exterior.002",
			"scale":[
				10,
				10,
				10
			]
		},
		{
			"mesh":1,
			"name":"Interior Template.002"
		},
		{
			"children":[
				5
			],
			"name":"Interior.002"
		},
		{
			"mesh":2,
			"name":"North.016"
		},
		{
			"children":[
				7
			],
			"name":"Interior Door Portals.002"
		},
		{
			"mesh":3,
			"name":"West.014"
		},
		{
			"mesh":4,
			"name":"East.014"
		},
		{
			"children":[
				9,
				10
			],
			"name":"Interior Windows.002"
		},
		{
			"children":[
				4,
				6,
				8,
				11
			],
			"name":"002"
		},
		{
			"name":"Exterior Door Steps.003"
		},
		{
			"name":"Exterior Windows.003"
		},
		{
			"name":"Interior Windows.003"
		},
		{
			"children":[
				13,
				14,
				15
			],
			"name":"003"
		},
		{
			"children":[
				3,
				12,
				16
			],
			"name":"Scene Collection"
		}
	],
	"meshes":[
		{
			"extras":{
				"portal":"001"
			},
			"name":"Plane.002",
			"primitives":[
				{
					"attributes":{
						"POSITION":0,
						"NORMAL":1
					},
					"indices":2
				}
			]
		},
		{
			"name":"Plane.113",
			"primitives":[
				{
					"attributes":{
						"POSITION":3,
						"NORMAL":4
					},
					"indices":5
				}
			]
		},
		{
			"extras":{
				"portal":"003"
			},
			"name":"Plane.106",
			"primitives":[
				{
					"attributes":{
						"POSITION":6,
						"NORMAL":7
					},
					"indices":8
				}
			]
		},
		{
			"name":"Plane.091",
			"primitives":[
				{
					"attributes":{
						"POSITION":9,
						"NORMAL":10
					},
					"indices":11
				}
			]
		},
		{
			"name":"Plane.089",
			"primitives":[
				{
					"attributes":{
						"POSITION":12,
						"NORMAL":13
					},
					"indices":14
				}
			]
		}
	],
	"accessors":[
		{
			"bufferView":0,
			"componentType":5126,
			"count":4,
			"max":[
				1,
				0,
				1
			],
			"min":[
				-1,
				0,
				-1
			],
			"type":"VEC3"
		},
		{
			"bufferView":1,
			"componentType":5126,
			"count":4,
			"type":"VEC3"
		},
		{
			"bufferView":2,
			"componentType":5123,
			"count":6,
			"type":"SCALAR"
		},
		{
			"bufferView":3,
			"componentType":5126,
			"count":199,
			"max":[
				1.9999699592590332,
				4.600000381469727,
				1.999999761581421
			],
			"min":[
				-2.0000298023223877,
				0.2000001072883606,
				-1.999999761581421
			],
			"type":"VEC3"
		},
		{
			"bufferView":4,
			"componentType":5126,
			"count":199,
			"type":"VEC3"
		},
		{
			"bufferView":5,
			"componentType":5123,
			"count":420,
			"type":"SCALAR"
		},
		{
			"bufferView":6,
			"componentType":5126,
			"count":4,
			"max":[
				0.599801778793335,
				2.1999993324279785,
				-1.999999761581421
			],
			"min":[
				-0.599861741065979,
				0.2000001072883606,
				-1.999999761581421
			],
			"type":"VEC3"
		},
		{
			"bufferView":7,
			"componentType":5126,
			"count":4,
			"type":"VEC3"
		},
		{
			"bufferView":8,
			"componentType":5123,
			"count":6,
			"type":"SCALAR"
		},
		{
			"bufferView":9,
			"componentType":5126,
			"count":8,
			"max":[
				-1.800029993057251,
				1.0000001192092896,
				0.5999998450279236
			],
			"min":[
				-2.0000298023223877,
				0.2000001221895218,
				-0.6000001430511475
			],
			"type":"VEC3"
		},
		{
			"bufferView":10,
			"componentType":5126,
			"count":8,
			"type":"VEC3"
		},
		{
			"bufferView":11,
			"componentType":5123,
			"count":12,
			"type":"SCALAR"
		},
		{
			"bufferView":12,
			"componentType":5126,
			"count":8,
			"max":[
				1.9999699592590332,
				1.0000001192092896,
				0.5999998450279236
			],
			"min":[
				1.800269365310669,
				0.2000001221895218,
				-0.6000001430511475
			],
			"type":"VEC3"
		},
		{
			"bufferView":13,
			"componentType":5126,
			"count":8,
			"type":"VEC3"
		},
		{
			"bufferView":14,
			"componentType":5123,
			"count":12,
			"type":"SCALAR"
		}
	],
	"bufferViews":[
		{
			"buffer":0,
			"byteLength":48,
			"byteOffset":0,
			"target":34962
		},
		{
			"buffer":0,
			"byteLength":48,
			"byteOffset":48,
			"target":34962
		},
		{
			"buffer":0,
			"byteLength":12,
			"byteOffset":96,
			"target":34963
		},
		{
			"buffer":0,
			"byteLength":2388,
			"byteOffset":108,
			"target":34962
		},
		{
			"buffer":0,
			"byteLength":2388,
			"byteOffset":2496,
			"target":34962
		},
		{
			"buffer":0,
			"byteLength":840,
			"byteOffset":4884,
			"target":34963
		},
		{
			"buffer":0,
			"byteLength":48,
			"byteOffset":5724,
			"target":34962
		},
		{
			"buffer":0,
			"byteLength":48,
			"byteOffset":5772,
			"target":34962
		},
		{
			"buffer":0,
			"byteLength":12,
			"byteOffset":5820,
			"target":34963
		},
		{
			"buffer":0,
			"byteLength":96,
			"byteOffset":5832,
			"target":34962
		},
		{
			"buffer":0,
			"byteLength":96,
			"byteOffset":5928,
			"target":34962
		},
		{
			"buffer":0,
			"byteLength":24,
			"byteOffset":6024,
			"target":34963
		},
		{
			"buffer":0,
			"byteLength":96,
			"byteOffset":6048,
			"target":34962
		},
		{
			"buffer":0,
			"byteLength":96,
			"byteOffset":6144,
			"target":34962
		},
		{
			"buffer":0,
			"byteLength":24,
			"byteOffset":6240,
			"target":34963
		}
	],
	"buffers":[
		{
			"byteLength":6264,
			"uri":"20250316-Portal%20House-002.bin"
		}
	]
}
