{
	"asset":{
		"generator":"Khronos glTF Blender I/O v4.3.47",
		"version":"2.0"
	},
	"scene":0,
	"scenes":[
		{
			"name":"Scene",
			"nodes":[
				24
			]
		}
	],
	"nodes":[
		{
			"mesh":0,
			"name":"001_exterior",
			"scale":[
				10,
				10,
				10
			]
		},
		{
			"mesh":1,
			"name":"Exterior Template.001"
		},
		{
			"children":[
				1
			],
			"name":"Exterior.001"
		},
		{
			"mesh":2,
			"name":"South.013"
		},
		{
			"children":[
				3
			],
			"name":"Exterior Door Steps.001"
		},
		{
			"mesh":3,
			"name":"South.012"
		},
		{
			"children":[
				5
			],
			"name":"Exterior Door Portals.001"
		},
		{
			"mesh":4,
			"name":"North.010"
		},
		{
			"mesh":5,
			"name":"West.010"
		},
		{
			"mesh":6,
			"name":"East.010"
		},
		{
			"children":[
				7,
				8,
				9
			],
			"name":"Exterior Windows.001"
		},
		{
			"mesh":7,
			"name":"Interior Template.001"
		},
		{
			"children":[
				11
			],
			"name":"Interior.001"
		},
		{
			"mesh":8,
			"name":"North.007"
		},
		{
			"mesh":9,
			"name":"West.007"
		},
		{
			"mesh":10,
			"name":"East.007"
		},
		{
			"children":[
				13,
				14,
				15
			],
			"name":"Interior Windows.001"
		},
		{
			"children":[
				0,
				2,
				4,
				6,
				10,
				12,
				16
			],
			"name":"001"
		},
		{
			"name":"Interior Door Portals.002"
		},
		{
			"children":[
				18
			],
			"name":"002"
		},
		{
			"name":"Exterior Door Steps.003"
		},
		{
			"name":"Exterior Windows.003"
		},
		{
			"name":"Interior Windows.003"
		},
		{
			"children":[
				20,
				21,
				22
			],
			"name":"003"
		},
		{
			"children":[
				17,
				19,
				23
			],
			"name":"Scene Collection"
		}
	],
	"meshes":[
		{
			"extras":{
				"portal":"001"
			},
			"name":"Plane.001",
			"primitives":[
				{
					"attributes":{
						"POSITION":0,
						"NORMAL":1
					},
					"indices":2
				}
			]
		},
		{
			"name":"Plane.078",
			"primitives":[
				{
					"attributes":{
						"POSITION":3,
						"NORMAL":4
					},
					"indices":5
				}
			]
		},
		{
			"name":"Plane.088",
			"primitives":[
				{
					"attributes":{
						"POSITION":6,
						"NORMAL":7
					},
					"indices":8
				}
			]
		},
		{
			"extras":{
				"prop":"002"
			},
			"name":"Plane.082",
			"primitives":[
				{
					"attributes":{
						"POSITION":9,
						"NORMAL":10
					},
					"indices":11
				}
			]
		},
		{
			"name":"Plane.074",
			"primitives":[
				{
					"attributes":{
						"POSITION":12,
						"NORMAL":13
					},
					"indices":14
				}
			]
		},
		{
			"name":"Plane.073",
			"primitives":[
				{
					"attributes":{
						"POSITION":15,
						"NORMAL":16
					},
					"indices":17
				}
			]
		},
		{
			"name":"Plane.071",
			"primitives":[
				{
					"attributes":{
						"POSITION":18,
						"NORMAL":19
					},
					"indices":20
				}
			]
		},
		{
			"name":"Plane.077",
			"primitives":[
				{
					"attributes":{
						"POSITION":21,
						"NORMAL":22
					},
					"indices":23
				}
			]
		},
		{
			"name":"Plane.056",
			"primitives":[
				{
					"attributes":{
						"POSITION":24,
						"NORMAL":25
					},
					"indices":26
				}
			]
		},
		{
			"name":"Plane.055",
			"primitives":[
				{
					"attributes":{
						"POSITION":27,
						"NORMAL":28
					},
					"indices":29
				}
			]
		},
		{
			"name":"Plane.053",
			"primitives":[
				{
					"attributes":{
						"POSITION":30,
						"NORMAL":31
					},
					"indices":32
				}
			]
		}
	],
	"accessors":[
		{
			"bufferView":0,
			"componentType":5126,
			"count":4,
			"max":[
				1,
				0,
				1
			],
			"min":[
				-1,
				0,
				-1
			],
			"type":"VEC3"
		},
		{
			"bufferView":1,
			"componentType":5126,
			"count":4,
			"type":"VEC3"
		},
		{
			"bufferView":2,
			"componentType":5123,
			"count":6,
			"type":"SCALAR"
		},
		{
			"bufferView":3,
			"componentType":5126,
			"count":805,
			"max":[
				2.0999698638916016,
				4.882841110229492,
				2.212131977081299
			],
			"min":[
				-2.100029945373535,
				-5.9604612800967516e-08,
				-2.2121317386627197
			],
			"type":"VEC3"
		},
		{
			"bufferView":4,
			"componentType":5126,
			"count":805,
			"type":"VEC3"
		},
		{
			"bufferView":5,
			"componentType":5123,
			"count":2568,
			"type":"SCALAR"
		},
		{
			"bufferView":6,
			"componentType":5126,
			"count":24,
			"max":[
				0.799801766872406,
				0.20000024139881134,
				2.1999998092651367
			],
			"min":[
				-0.7998618483543396,
				0,
				1.999999761581421
			],
			"type":"VEC3"
		},
		{
			"bufferView":7,
			"componentType":5126,
			"count":24,
			"type":"VEC3"
		},
		{
			"bufferView":8,
			"componentType":5123,
			"count":48,
			"type":"SCALAR"
		},
		{
			"bufferView":9,
			"componentType":5126,
			"count":4,
			"max":[
				0.599801778793335,
				2.1999993324279785,
				1.799999713897705
			],
			"min":[
				-0.599861741065979,
				0.2000001221895218,
				1.799999713897705
			],
			"type":"VEC3"
		},
		{
			"bufferView":10,
			"componentType":5126,
			"count":4,
			"type":"VEC3"
		},
		{
			"bufferView":11,
			"componentType":5123,
			"count":6,
			"type":"SCALAR"
		},
		{
			"bufferView":12,
			"componentType":5126,
			"count":8,
			"max":[
				0.599801778793335,
				1.0000001192092896,
				-1.7999999523162842
			],
			"min":[
				-0.599861741065979,
				0.2000001221895218,
				-1.999999761581421
			],
			"type":"VEC3"
		},
		{
			"bufferView":13,
			"componentType":5126,
			"count":8,
			"type":"VEC3"
		},
		{
			"bufferView":14,
			"componentType":5123,
			"count":12,
			"type":"SCALAR"
		},
		{
			"bufferView":15,
			"componentType":5126,
			"count":8,
			"max":[
				-1.800029993057251,
				1.0000001192092896,
				0.5999998450279236
			],
			"min":[
				-2.0000298023223877,
				0.2000001221895218,
				-0.6000001430511475
			],
			"type":"VEC3"
		},
		{
			"bufferView":16,
			"componentType":5126,
			"count":8,
			"type":"VEC3"
		},
		{
			"bufferView":17,
			"componentType":5123,
			"count":12,
			"type":"SCALAR"
		},
		{
			"bufferView":18,
			"componentType":5126,
			"count":8,
			"max":[
				1.9999699592590332,
				1.0000001192092896,
				0.5999998450279236
			],
			"min":[
				1.800269365310669,
				0.2000001221895218,
				-0.6000001430511475
			],
			"type":"VEC3"
		},
		{
			"bufferView":19,
			"componentType":5126,
			"count":8,
			"type":"VEC3"
		},
		{
			"bufferView":20,
			"componentType":5123,
			"count":12,
			"type":"SCALAR"
		},
		{
			"bufferView":21,
			"componentType":5126,
			"count":200,
			"max":[
				1.9999699592590332,
				4.600000381469727,
				1.999999761581421
			],
			"min":[
				-2.0000298023223877,
				0.2000001072883606,
				-1.999999761581421
			],
			"type":"VEC3"
		},
		{
			"bufferView":22,
			"componentType":5126,
			"count":200,
			"type":"VEC3"
		},
		{
			"bufferView":23,
			"componentType":5123,
			"count":420,
			"type":"SCALAR"
		},
		{
			"bufferView":24,
			"componentType":5126,
			"count":8,
			"max":[
				0.599801778793335,
				1.0000001192092896,
				-1.7999999523162842
			],
			"min":[
				-0.599861741065979,
				0.2000001221895218,
				-1.999999761581421
			],
			"type":"VEC3"
		},
		{
			"bufferView":25,
			"componentType":5126,
			"count":8,
			"type":"VEC3"
		},
		{
			"bufferView":26,
			"componentType":5123,
			"count":12,
			"type":"SCALAR"
		},
		{
			"bufferView":27,
			"componentType":5126,
			"count":8,
			"max":[
				-1.800029993057251,
				1.0000001192092896,
				0.5999998450279236
			],
			"min":[
				-2.0000298023223877,
				0.2000001221895218,
				-0.6000001430511475
			],
			"type":"VEC3"
		},
		{
			"bufferView":28,
			"componentType":5126,
			"count":8,
			"type":"VEC3"
		},
		{
			"bufferView":29,
			"componentType":5123,
			"count":12,
			"type":"SCALAR"
		},
		{
			"bufferView":30,
			"componentType":5126,
			"count":8,
			"max":[
				1.9999699592590332,
				1.0000001192092896,
				0.5999998450279236
			],
			"min":[
				1.800269365310669,
				0.2000001221895218,
				-0.6000001430511475
			],
			"type":"VEC3"
		},
		{
			"bufferView":31,
			"componentType":5126,
			"count":8,
			"type":"VEC3"
		},
		{
			"bufferView":32,
			"componentType":5123,
			"count":12,
			"type":"SCALAR"
		}
	],
	"bufferViews":[
		{
			"buffer":0,
			"byteLength":48,
			"byteOffset":0,
			"target":34962
		},
		{
			"buffer":0,
			"byteLength":48,
			"byteOffset":48,
			"target":34962
		},
		{
			"buffer":0,
			"byteLength":12,
			"byteOffset":96,
			"target":34963
		},
		{
			"buffer":0,
			"byteLength":9660,
			"byteOffset":108,
			"target":34962
		},
		{
			"buffer":0,
			"byteLength":9660,
			"byteOffset":9768,
			"target":34962
		},
		{
			"buffer":0,
			"byteLength":5136,
			"byteOffset":19428,
			"target":34963
		},
		{
			"buffer":0,
			"byteLength":288,
			"byteOffset":24564,
			"target":34962
		},
		{
			"buffer":0,
			"byteLength":288,
			"byteOffset":24852,
			"target":34962
		},
		{
			"buffer":0,
			"byteLength":96,
			"byteOffset":25140,
			"target":34963
		},
		{
			"buffer":0,
			"byteLength":48,
			"byteOffset":25236,
			"target":34962
		},
		{
			"buffer":0,
			"byteLength":48,
			"byteOffset":25284,
			"target":34962
		},
		{
			"buffer":0,
			"byteLength":12,
			"byteOffset":25332,
			"target":34963
		},
		{
			"buffer":0,
			"byteLength":96,
			"byteOffset":25344,
			"target":34962
		},
		{
			"buffer":0,
			"byteLength":96,
			"byteOffset":25440,
			"target":34962
		},
		{
			"buffer":0,
			"byteLength":24,
			"byteOffset":25536,
			"target":34963
		},
		{
			"buffer":0,
			"byteLength":96,
			"byteOffset":25560,
			"target":34962
		},
		{
			"buffer":0,
			"byteLength":96,
			"byteOffset":25656,
			"target":34962
		},
		{
			"buffer":0,
			"byteLength":24,
			"byteOffset":25752,
			"target":34963
		},
		{
			"buffer":0,
			"byteLength":96,
			"byteOffset":25776,
			"target":34962
		},
		{
			"buffer":0,
			"byteLength":96,
			"byteOffset":25872,
			"target":34962
		},
		{
			"buffer":0,
			"byteLength":24,
			"byteOffset":25968,
			"target":34963
		},
		{
			"buffer":0,
			"byteLength":2400,
			"byteOffset":25992,
			"target":34962
		},
		{
			"buffer":0,
			"byteLength":2400,
			"byteOffset":28392,
			"target":34962
		},
		{
			"buffer":0,
			"byteLength":840,
			"byteOffset":30792,
			"target":34963
		},
		{
			"buffer":0,
			"byteLength":96,
			"byteOffset":31632,
			"target":34962
		},
		{
			"buffer":0,
			"byteLength":96,
			"byteOffset":31728,
			"target":34962
		},
		{
			"buffer":0,
			"byteLength":24,
			"byteOffset":31824,
			"target":34963
		},
		{
			"buffer":0,
			"byteLength":96,
			"byteOffset":31848,
			"target":34962
		},
		{
			"buffer":0,
			"byteLength":96,
			"byteOffset":31944,
			"target":34962
		},
		{
			"buffer":0,
			"byteLength":24,
			"byteOffset":32040,
			"target":34963
		},
		{
			"buffer":0,
			"byteLength":96,
			"byteOffset":32064,
			"target":34962
		},
		{
			"buffer":0,
			"byteLength":96,
			"byteOffset":32160,
			"target":34962
		},
		{
			"buffer":0,
			"byteLength":24,
			"byteOffset":32256,
			"target":34963
		}
	],
	"buffers":[
		{
			"byteLength":32280,
			"uri":"20250316-Portal%20House-001.bin"
		}
	]
}
