{
	"asset":{
		"generator":"Khronos glTF Blender I/O v4.3.47",
		"version":"2.0"
	},
	"scene":0,
	"scenes":[
		{
			"name":"Scene",
			"nodes":[
				22
			]
		}
	],
	"nodes":[
		{
			"name":"Exterior Door Steps.001"
		},
		{
			"name":"Exterior Windows.001"
		},
		{
			"name":"Interior Windows.001"
		},
		{
			"children":[
				0,
				1,
				2
			],
			"name":"001"
		},
		{
			"name":"Interior Door Portals.002"
		},
		{
			"children":[
				4
			],
			"name":"002"
		},
		{
			"mesh":0,
			"name":"001_exterior.001",
			"scale":[
				10,
				10,
				10
			]
		},
		{
			"mesh":1,
			"name":"Exterior Template.003"
		},
		{
			"children":[
				7
			],
			"name":"Exterior.003"
		},
		{
			"mesh":2,
			"name":"South.027"
		},
		{
			"children":[
				9
			],
			"name":"Exterior Door Steps.003"
		},
		{
			"mesh":3,
			"name":"North.024"
		},
		{
			"mesh":4,
			"name":"West.024"
		},
		{
			"mesh":5,
			"name":"East.024"
		},
		{
			"children":[
				11,
				12,
				13
			],
			"name":"Exterior Windows.003"
		},
		{
			"mesh":6,
			"name":"Interior Template.003"
		},
		{
			"children":[
				15
			],
			"name":"Interior.003"
		},
		{
			"mesh":7,
			"name":"North.021"
		},
		{
			"mesh":8,
			"name":"West.021"
		},
		{
			"mesh":9,
			"name":"East.021"
		},
		{
			"children":[
				17,
				18,
				19
			],
			"name":"Interior Windows.003"
		},
		{
			"children":[
				6,
				8,
				10,
				14,
				16,
				20
			],
			"name":"003"
		},
		{
			"children":[
				3,
				5,
				21
			],
			"name":"Scene Collection"
		}
	],
	"meshes":[
		{
			"name":"Plane.161",
			"primitives":[
				{
					"attributes":{
						"POSITION":0,
						"NORMAL":1
					},
					"indices":2
				}
			]
		},
		{
			"name":"Plane.150",
			"primitives":[
				{
					"attributes":{
						"POSITION":3,
						"NORMAL":4
					},
					"indices":5
				}
			]
		},
		{
			"name":"Plane.160",
			"primitives":[
				{
					"attributes":{
						"POSITION":6,
						"NORMAL":7
					},
					"indices":8
				}
			]
		},
		{
			"name":"Plane.146",
			"primitives":[
				{
					"attributes":{
						"POSITION":9,
						"NORMAL":10
					},
					"indices":11
				}
			]
		},
		{
			"name":"Plane.145",
			"primitives":[
				{
					"attributes":{
						"POSITION":12,
						"NORMAL":13
					},
					"indices":14
				}
			]
		},
		{
			"name":"Plane.143",
			"primitives":[
				{
					"attributes":{
						"POSITION":15,
						"NORMAL":16
					},
					"indices":17
				}
			]
		},
		{
			"name":"Plane.149",
			"primitives":[
				{
					"attributes":{
						"POSITION":18,
						"NORMAL":19
					},
					"indices":20
				}
			]
		},
		{
			"name":"Plane.128",
			"primitives":[
				{
					"attributes":{
						"POSITION":21,
						"NORMAL":22
					},
					"indices":23
				}
			]
		},
		{
			"name":"Plane.127",
			"primitives":[
				{
					"attributes":{
						"POSITION":24,
						"NORMAL":25
					},
					"indices":26
				}
			]
		},
		{
			"name":"Plane.125",
			"primitives":[
				{
					"attributes":{
						"POSITION":27,
						"NORMAL":28
					},
					"indices":29
				}
			]
		}
	],
	"accessors":[
		{
			"bufferView":0,
			"componentType":5126,
			"count":4,
			"max":[
				1,
				0,
				1
			],
			"min":[
				-1,
				0,
				-1
			],
			"type":"VEC3"
		},
		{
			"bufferView":1,
			"componentType":5126,
			"count":4,
			"type":"VEC3"
		},
		{
			"bufferView":2,
			"componentType":5123,
			"count":6,
			"type":"SCALAR"
		},
		{
			"bufferView":3,
			"componentType":5126,
			"count":382,
			"max":[
				2.0999698638916016,
				4.882841110229492,
				2.212131977081299
			],
			"min":[
				-2.100029945373535,
				0,
				-2.2121317386627197
			],
			"type":"VEC3"
		},
		{
			"bufferView":4,
			"componentType":5126,
			"count":382,
			"type":"VEC3"
		},
		{
			"bufferView":5,
			"componentType":5123,
			"count":1230,
			"type":"SCALAR"
		},
		{
			"bufferView":6,
			"componentType":5126,
			"count":24,
			"max":[
				0.799801766872406,
				0.20000024139881134,
				2.1999998092651367
			],
			"min":[
				-0.7998618483543396,
				0,
				1.999999761581421
			],
			"type":"VEC3"
		},
		{
			"bufferView":7,
			"componentType":5126,
			"count":24,
			"type":"VEC3"
		},
		{
			"bufferView":8,
			"componentType":5123,
			"count":48,
			"type":"SCALAR"
		},
		{
			"bufferView":9,
			"componentType":5126,
			"count":8,
			"max":[
				0.599801778793335,
				1.0000001192092896,
				-1.7999999523162842
			],
			"min":[
				-0.599861741065979,
				0.2000001221895218,
				-1.999999761581421
			],
			"type":"VEC3"
		},
		{
			"bufferView":10,
			"componentType":5126,
			"count":8,
			"type":"VEC3"
		},
		{
			"bufferView":11,
			"componentType":5123,
			"count":12,
			"type":"SCALAR"
		},
		{
			"bufferView":12,
			"componentType":5126,
			"count":8,
			"max":[
				-1.800029993057251,
				1.0000001192092896,
				0.5999998450279236
			],
			"min":[
				-2.0000298023223877,
				0.2000001221895218,
				-0.6000001430511475
			],
			"type":"VEC3"
		},
		{
			"bufferView":13,
			"componentType":5126,
			"count":8,
			"type":"VEC3"
		},
		{
			"bufferView":14,
			"componentType":5123,
			"count":12,
			"type":"SCALAR"
		},
		{
			"bufferView":15,
			"componentType":5126,
			"count":8,
			"max":[
				1.9999699592590332,
				1.0000001192092896,
				0.5999998450279236
			],
			"min":[
				1.800269365310669,
				0.2000001221895218,
				-0.6000001430511475
			],
			"type":"VEC3"
		},
		{
			"bufferView":16,
			"componentType":5126,
			"count":8,
			"type":"VEC3"
		},
		{
			"bufferView":17,
			"componentType":5123,
			"count":12,
			"type":"SCALAR"
		},
		{
			"bufferView":18,
			"componentType":5126,
			"count":200,
			"max":[
				1.9999699592590332,
				4.600000381469727,
				1.999999761581421
			],
			"min":[
				-2.0000298023223877,
				0.2000001072883606,
				-1.999999761581421
			],
			"type":"VEC3"
		},
		{
			"bufferView":19,
			"componentType":5126,
			"count":200,
			"type":"VEC3"
		},
		{
			"bufferView":20,
			"componentType":5123,
			"count":420,
			"type":"SCALAR"
		},
		{
			"bufferView":21,
			"componentType":5126,
			"count":8,
			"max":[
				0.599801778793335,
				1.0000001192092896,
				-1.7999999523162842
			],
			"min":[
				-0.599861741065979,
				0.2000001221895218,
				-1.999999761581421
			],
			"type":"VEC3"
		},
		{
			"bufferView":22,
			"componentType":5126,
			"count":8,
			"type":"VEC3"
		},
		{
			"bufferView":23,
			"componentType":5123,
			"count":12,
			"type":"SCALAR"
		},
		{
			"bufferView":24,
			"componentType":5126,
			"count":8,
			"max":[
				-1.800029993057251,
				1.0000001192092896,
				0.5999998450279236
			],
			"min":[
				-2.0000298023223877,
				0.2000001221895218,
				-0.6000001430511475
			],
			"type":"VEC3"
		},
		{
			"bufferView":25,
			"componentType":5126,
			"count":8,
			"type":"VEC3"
		},
		{
			"bufferView":26,
			"componentType":5123,
			"count":12,
			"type":"SCALAR"
		},
		{
			"bufferView":27,
			"componentType":5126,
			"count":8,
			"max":[
				1.9999699592590332,
				1.0000001192092896,
				0.5999998450279236
			],
			"min":[
				1.800269365310669,
				0.2000001221895218,
				-0.6000001430511475
			],
			"type":"VEC3"
		},
		{
			"bufferView":28,
			"componentType":5126,
			"count":8,
			"type":"VEC3"
		},
		{
			"bufferView":29,
			"componentType":5123,
			"count":12,
			"type":"SCALAR"
		}
	],
	"bufferViews":[
		{
			"buffer":0,
			"byteLength":48,
			"byteOffset":0,
			"target":34962
		},
		{
			"buffer":0,
			"byteLength":48,
			"byteOffset":48,
			"target":34962
		},
		{
			"buffer":0,
			"byteLength":12,
			"byteOffset":96,
			"target":34963
		},
		{
			"buffer":0,
			"byteLength":4584,
			"byteOffset":108,
			"target":34962
		},
		{
			"buffer":0,
			"byteLength":4584,
			"byteOffset":4692,
			"target":34962
		},
		{
			"buffer":0,
			"byteLength":2460,
			"byteOffset":9276,
			"target":34963
		},
		{
			"buffer":0,
			"byteLength":288,
			"byteOffset":11736,
			"target":34962
		},
		{
			"buffer":0,
			"byteLength":288,
			"byteOffset":12024,
			"target":34962
		},
		{
			"buffer":0,
			"byteLength":96,
			"byteOffset":12312,
			"target":34963
		},
		{
			"buffer":0,
			"byteLength":96,
			"byteOffset":12408,
			"target":34962
		},
		{
			"buffer":0,
			"byteLength":96,
			"byteOffset":12504,
			"target":34962
		},
		{
			"buffer":0,
			"byteLength":24,
			"byteOffset":12600,
			"target":34963
		},
		{
			"buffer":0,
			"byteLength":96,
			"byteOffset":12624,
			"target":34962
		},
		{
			"buffer":0,
			"byteLength":96,
			"byteOffset":12720,
			"target":34962
		},
		{
			"buffer":0,
			"byteLength":24,
			"byteOffset":12816,
			"target":34963
		},
		{
			"buffer":0,
			"byteLength":96,
			"byteOffset":12840,
			"target":34962
		},
		{
			"buffer":0,
			"byteLength":96,
			"byteOffset":12936,
			"target":34962
		},
		{
			"buffer":0,
			"byteLength":24,
			"byteOffset":13032,
			"target":34963
		},
		{
			"buffer":0,
			"byteLength":2400,
			"byteOffset":13056,
			"target":34962
		},
		{
			"buffer":0,
			"byteLength":2400,
			"byteOffset":15456,
			"target":34962
		},
		{
			"buffer":0,
			"byteLength":840,
			"byteOffset":17856,
			"target":34963
		},
		{
			"buffer":0,
			"byteLength":96,
			"byteOffset":18696,
			"target":34962
		},
		{
			"buffer":0,
			"byteLength":96,
			"byteOffset":18792,
			"target":34962
		},
		{
			"buffer":0,
			"byteLength":24,
			"byteOffset":18888,
			"target":34963
		},
		{
			"buffer":0,
			"byteLength":96,
			"byteOffset":18912,
			"target":34962
		},
		{
			"buffer":0,
			"byteLength":96,
			"byteOffset":19008,
			"target":34962
		},
		{
			"buffer":0,
			"byteLength":24,
			"byteOffset":19104,
			"target":34963
		},
		{
			"buffer":0,
			"byteLength":96,
			"byteOffset":19128,
			"target":34962
		},
		{
			"buffer":0,
			"byteLength":96,
			"byteOffset":19224,
			"target":34962
		},
		{
			"buffer":0,
			"byteLength":24,
			"byteOffset":19320,
			"target":34963
		}
	],
	"buffers":[
		{
			"byteLength":19344,
			"uri":"20250316-Portal%20House-003.bin"
		}
	]
}
