{
	"asset":{
		"generator":"Khronos glTF Blender I/O v4.3.47",
		"version":"2.0"
	},
	"scene":0,
	"scenes":[
		{
			"name":"Scene",
			"nodes":[
				42
			]
		}
	],
	"nodes":[
		{
			"name":"Exterior Door Steps"
		},
		{
			"name":"Exterior Window Portals"
		},
		{
			"name":"Interior"
		},
		{
			"name":"Interior Window Portals"
		},
		{
			"children":[
				0,
				1,
				2,
				3
			],
			"name":"House Template"
		},
		{
			"mesh":0,
			"name":"001_exterior",
			"scale":[
				10,
				10,
				10
			]
		},
		{
			"mesh":1,
			"name":"Exterior Template.001"
		},
		{
			"children":[
				6
			],
			"name":"Exterior.001"
		},
		{
			"mesh":2,
			"name":"South.013"
		},
		{
			"children":[
				8
			],
			"name":"Exterior Door Steps.001"
		},
		{
			"mesh":3,
			"name":"South.012"
		},
		{
			"children":[
				10
			],
			"name":"Exterior Door Portals.001"
		},
		{
			"mesh":4,
			"name":"North.010"
		},
		{
			"mesh":5,
			"name":"West.010"
		},
		{
			"mesh":6,
			"name":"East.010"
		},
		{
			"children":[
				12,
				13,
				14
			],
			"name":"Exterior Windows.001"
		},
		{
			"name":"Interior Door Portals.001"
		},
		{
			"name":"Interior Windows.001"
		},
		{
			"children":[
				5,
				7,
				9,
				11,
				15,
				16,
				17
			],
			"name":"001"
		},
		{
			"name":"Exterior Door Steps.002"
		},
		{
			"name":"Exterior Window Portals.002"
		},
		{
			"mesh":7,
			"name":"Interior Template.002"
		},
		{
			"children":[
				21
			],
			"name":"Interior.002"
		},
		{
			"mesh":8,
			"name":"North.016"
		},
		{
			"children":[
				23
			],
			"name":"Interior Door Portals.002"
		},
		{
			"mesh":9,
			"name":"West.014"
		},
		{
			"mesh":10,
			"name":"East.014"
		},
		{
			"children":[
				25,
				26
			],
			"name":"Interior Windows.002"
		},
		{
			"children":[
				19,
				20,
				22,
				24,
				27
			],
			"name":"002"
		},
		{
			"mesh":11,
			"name":"001_exterior.001",
			"scale":[
				10,
				10,
				10
			]
		},
		{
			"mesh":12,
			"name":"Exterior Template.003"
		},
		{
			"children":[
				30
			],
			"name":"Exterior.003"
		},
		{
			"mesh":13,
			"name":"South.027"
		},
		{
			"children":[
				32
			],
			"name":"Exterior Door Steps.003"
		},
		{
			"name":"Exterior Window Portals.003"
		},
		{
			"mesh":14,
			"name":"North.024"
		},
		{
			"mesh":15,
			"name":"West.024"
		},
		{
			"mesh":16,
			"name":"East.024"
		},
		{
			"children":[
				35,
				36,
				37
			],
			"name":"Exterior Windows.003"
		},
		{
			"name":"Interior Door Portals.003"
		},
		{
			"name":"Interior Windows.003"
		},
		{
			"children":[
				29,
				31,
				33,
				34,
				38,
				39,
				40
			],
			"name":"003"
		},
		{
			"children":[
				4,
				18,
				28,
				41
			],
			"name":"Scene Collection"
		}
	],
	"meshes":[
		{
			"extras":{
				"portal":"001"
			},
			"name":"Plane.001",
			"primitives":[
				{
					"attributes":{
						"POSITION":0,
						"NORMAL":1
					},
					"indices":2
				}
			]
		},
		{
			"name":"Plane.078",
			"primitives":[
				{
					"attributes":{
						"POSITION":3,
						"NORMAL":4
					},
					"indices":5
				}
			]
		},
		{
			"name":"Plane.088",
			"primitives":[
				{
					"attributes":{
						"POSITION":6,
						"NORMAL":7
					},
					"indices":8
				}
			]
		},
		{
			"extras":{
				"prop":"002"
			},
			"name":"Plane.082",
			"primitives":[
				{
					"attributes":{
						"POSITION":9,
						"NORMAL":10
					},
					"indices":11
				}
			]
		},
		{
			"name":"Plane.074",
			"primitives":[
				{
					"attributes":{
						"POSITION":12,
						"NORMAL":13
					},
					"indices":14
				}
			]
		},
		{
			"name":"Plane.073",
			"primitives":[
				{
					"attributes":{
						"POSITION":15,
						"NORMAL":16
					},
					"indices":17
				}
			]
		},
		{
			"name":"Plane.071",
			"primitives":[
				{
					"attributes":{
						"POSITION":18,
						"NORMAL":19
					},
					"indices":20
				}
			]
		},
		{
			"name":"Plane.113",
			"primitives":[
				{
					"attributes":{
						"POSITION":21,
						"NORMAL":22
					},
					"indices":23
				}
			]
		},
		{
			"extras":{
				"portal":"003"
			},
			"name":"Plane.106",
			"primitives":[
				{
					"attributes":{
						"POSITION":24,
						"NORMAL":25
					},
					"indices":11
				}
			]
		},
		{
			"name":"Plane.091",
			"primitives":[
				{
					"attributes":{
						"POSITION":26,
						"NORMAL":27
					},
					"indices":28
				}
			]
		},
		{
			"name":"Plane.089",
			"primitives":[
				{
					"attributes":{
						"POSITION":29,
						"NORMAL":30
					},
					"indices":31
				}
			]
		},
		{
			"name":"Plane.161",
			"primitives":[
				{
					"attributes":{
						"POSITION":32,
						"NORMAL":33
					},
					"indices":2
				}
			]
		},
		{
			"name":"Plane.150",
			"primitives":[
				{
					"attributes":{
						"POSITION":34,
						"NORMAL":35
					},
					"indices":5
				}
			]
		},
		{
			"name":"Plane.160",
			"primitives":[
				{
					"attributes":{
						"POSITION":36,
						"NORMAL":37
					},
					"indices":8
				}
			]
		},
		{
			"name":"Plane.146",
			"primitives":[
				{
					"attributes":{
						"POSITION":38,
						"NORMAL":39
					},
					"indices":14
				}
			]
		},
		{
			"name":"Plane.145",
			"primitives":[
				{
					"attributes":{
						"POSITION":40,
						"NORMAL":41
					},
					"indices":17
				}
			]
		},
		{
			"name":"Plane.143",
			"primitives":[
				{
					"attributes":{
						"POSITION":42,
						"NORMAL":43
					},
					"indices":20
				}
			]
		}
	],
	"accessors":[
		{
			"bufferView":0,
			"componentType":5126,
			"count":4,
			"max":[
				1,
				0,
				1
			],
			"min":[
				-1,
				0,
				-1
			],
			"type":"VEC3"
		},
		{
			"bufferView":1,
			"componentType":5126,
			"count":4,
			"type":"VEC3"
		},
		{
			"bufferView":2,
			"componentType":5123,
			"count":6,
			"type":"SCALAR"
		},
		{
			"bufferView":3,
			"componentType":5126,
			"count":805,
			"max":[
				2.0999698638916016,
				4.882841110229492,
				2.212131977081299
			],
			"min":[
				-2.100029945373535,
				-5.9604612800967516e-08,
				-2.2121317386627197
			],
			"type":"VEC3"
		},
		{
			"bufferView":4,
			"componentType":5126,
			"count":805,
			"type":"VEC3"
		},
		{
			"bufferView":5,
			"componentType":5123,
			"count":2568,
			"type":"SCALAR"
		},
		{
			"bufferView":6,
			"componentType":5126,
			"count":24,
			"max":[
				0.799801766872406,
				0.20000024139881134,
				2.1999998092651367
			],
			"min":[
				-0.7998618483543396,
				0,
				1.999999761581421
			],
			"type":"VEC3"
		},
		{
			"bufferView":7,
			"componentType":5126,
			"count":24,
			"type":"VEC3"
		},
		{
			"bufferView":8,
			"componentType":5123,
			"count":48,
			"type":"SCALAR"
		},
		{
			"bufferView":9,
			"componentType":5126,
			"count":4,
			"max":[
				0.599801778793335,
				2.1999993324279785,
				1.799999713897705
			],
			"min":[
				-0.599861741065979,
				0.2000001221895218,
				1.799999713897705
			],
			"type":"VEC3"
		},
		{
			"bufferView":10,
			"componentType":5126,
			"count":4,
			"type":"VEC3"
		},
		{
			"bufferView":11,
			"componentType":5123,
			"count":6,
			"type":"SCALAR"
		},
		{
			"bufferView":12,
			"componentType":5126,
			"count":8,
			"max":[
				0.599801778793335,
				1.0000001192092896,
				-1.7999999523162842
			],
			"min":[
				-0.599861741065979,
				0.2000001221895218,
				-1.999999761581421
			],
			"type":"VEC3"
		},
		{
			"bufferView":13,
			"componentType":5126,
			"count":8,
			"type":"VEC3"
		},
		{
			"bufferView":14,
			"componentType":5123,
			"count":12,
			"type":"SCALAR"
		},
		{
			"bufferView":15,
			"componentType":5126,
			"count":8,
			"max":[
				-1.800029993057251,
				1.0000001192092896,
				0.5999998450279236
			],
			"min":[
				-2.0000298023223877,
				0.2000001221895218,
				-0.6000001430511475
			],
			"type":"VEC3"
		},
		{
			"bufferView":16,
			"componentType":5126,
			"count":8,
			"type":"VEC3"
		},
		{
			"bufferView":17,
			"componentType":5123,
			"count":12,
			"type":"SCALAR"
		},
		{
			"bufferView":18,
			"componentType":5126,
			"count":8,
			"max":[
				1.9999699592590332,
				1.0000001192092896,
				0.5999998450279236
			],
			"min":[
				1.800269365310669,
				0.2000001221895218,
				-0.6000001430511475
			],
			"type":"VEC3"
		},
		{
			"bufferView":19,
			"componentType":5126,
			"count":8,
			"type":"VEC3"
		},
		{
			"bufferView":20,
			"componentType":5123,
			"count":12,
			"type":"SCALAR"
		},
		{
			"bufferView":21,
			"componentType":5126,
			"count":200,
			"max":[
				1.9999699592590332,
				4.600000381469727,
				1.999999761581421
			],
			"min":[
				-2.0000298023223877,
				0.2000001072883606,
				-1.999999761581421
			],
			"type":"VEC3"
		},
		{
			"bufferView":22,
			"componentType":5126,
			"count":200,
			"type":"VEC3"
		},
		{
			"bufferView":23,
			"componentType":5123,
			"count":420,
			"type":"SCALAR"
		},
		{
			"bufferView":24,
			"componentType":5126,
			"count":4,
			"max":[
				0.599801778793335,
				2.1999993324279785,
				-1.999999761581421
			],
			"min":[
				-0.599861741065979,
				0.2000001072883606,
				-1.999999761581421
			],
			"type":"VEC3"
		},
		{
			"bufferView":25,
			"componentType":5126,
			"count":4,
			"type":"VEC3"
		},
		{
			"bufferView":26,
			"componentType":5126,
			"count":8,
			"max":[
				-1.800029993057251,
				1.0000001192092896,
				0.5999998450279236
			],
			"min":[
				-2.0000298023223877,
				0.2000001221895218,
				-0.6000001430511475
			],
			"type":"VEC3"
		},
		{
			"bufferView":27,
			"componentType":5126,
			"count":8,
			"type":"VEC3"
		},
		{
			"bufferView":28,
			"componentType":5123,
			"count":12,
			"type":"SCALAR"
		},
		{
			"bufferView":29,
			"componentType":5126,
			"count":8,
			"max":[
				1.9999699592590332,
				1.0000001192092896,
				0.5999998450279236
			],
			"min":[
				1.800269365310669,
				0.2000001221895218,
				-0.6000001430511475
			],
			"type":"VEC3"
		},
		{
			"bufferView":30,
			"componentType":5126,
			"count":8,
			"type":"VEC3"
		},
		{
			"bufferView":31,
			"componentType":5123,
			"count":12,
			"type":"SCALAR"
		},
		{
			"bufferView":32,
			"componentType":5126,
			"count":4,
			"max":[
				1,
				0,
				1
			],
			"min":[
				-1,
				0,
				-1
			],
			"type":"VEC3"
		},
		{
			"bufferView":33,
			"componentType":5126,
			"count":4,
			"type":"VEC3"
		},
		{
			"bufferView":34,
			"componentType":5126,
			"count":805,
			"max":[
				2.0999698638916016,
				4.882841110229492,
				2.212131977081299
			],
			"min":[
				-2.100029945373535,
				-5.9604612800967516e-08,
				-2.2121317386627197
			],
			"type":"VEC3"
		},
		{
			"bufferView":35,
			"componentType":5126,
			"count":805,
			"type":"VEC3"
		},
		{
			"bufferView":36,
			"componentType":5126,
			"count":24,
			"max":[
				0.799801766872406,
				0.20000024139881134,
				2.1999998092651367
			],
			"min":[
				-0.7998618483543396,
				0,
				1.999999761581421
			],
			"type":"VEC3"
		},
		{
			"bufferView":37,
			"componentType":5126,
			"count":24,
			"type":"VEC3"
		},
		{
			"bufferView":38,
			"componentType":5126,
			"count":8,
			"max":[
				0.599801778793335,
				1.0000001192092896,
				-1.7999999523162842
			],
			"min":[
				-0.599861741065979,
				0.2000001221895218,
				-1.999999761581421
			],
			"type":"VEC3"
		},
		{
			"bufferView":39,
			"componentType":5126,
			"count":8,
			"type":"VEC3"
		},
		{
			"bufferView":40,
			"componentType":5126,
			"count":8,
			"max":[
				-1.800029993057251,
				1.0000001192092896,
				0.5999998450279236
			],
			"min":[
				-2.0000298023223877,
				0.2000001221895218,
				-0.6000001430511475
			],
			"type":"VEC3"
		},
		{
			"bufferView":41,
			"componentType":5126,
			"count":8,
			"type":"VEC3"
		},
		{
			"bufferView":42,
			"componentType":5126,
			"count":8,
			"max":[
				1.9999699592590332,
				1.0000001192092896,
				0.5999998450279236
			],
			"min":[
				1.800269365310669,
				0.2000001221895218,
				-0.6000001430511475
			],
			"type":"VEC3"
		},
		{
			"bufferView":43,
			"componentType":5126,
			"count":8,
			"type":"VEC3"
		}
	],
	"bufferViews":[
		{
			"buffer":0,
			"byteLength":48,
			"byteOffset":0,
			"target":34962
		},
		{
			"buffer":0,
			"byteLength":48,
			"byteOffset":48,
			"target":34962
		},
		{
			"buffer":0,
			"byteLength":12,
			"byteOffset":96,
			"target":34963
		},
		{
			"buffer":0,
			"byteLength":9660,
			"byteOffset":108,
			"target":34962
		},
		{
			"buffer":0,
			"byteLength":9660,
			"byteOffset":9768,
			"target":34962
		},
		{
			"buffer":0,
			"byteLength":5136,
			"byteOffset":19428,
			"target":34963
		},
		{
			"buffer":0,
			"byteLength":288,
			"byteOffset":24564,
			"target":34962
		},
		{
			"buffer":0,
			"byteLength":288,
			"byteOffset":24852,
			"target":34962
		},
		{
			"buffer":0,
			"byteLength":96,
			"byteOffset":25140,
			"target":34963
		},
		{
			"buffer":0,
			"byteLength":48,
			"byteOffset":25236,
			"target":34962
		},
		{
			"buffer":0,
			"byteLength":48,
			"byteOffset":25284,
			"target":34962
		},
		{
			"buffer":0,
			"byteLength":12,
			"byteOffset":25332,
			"target":34963
		},
		{
			"buffer":0,
			"byteLength":96,
			"byteOffset":25344,
			"target":34962
		},
		{
			"buffer":0,
			"byteLength":96,
			"byteOffset":25440,
			"target":34962
		},
		{
			"buffer":0,
			"byteLength":24,
			"byteOffset":25536,
			"target":34963
		},
		{
			"buffer":0,
			"byteLength":96,
			"byteOffset":25560,
			"target":34962
		},
		{
			"buffer":0,
			"byteLength":96,
			"byteOffset":25656,
			"target":34962
		},
		{
			"buffer":0,
			"byteLength":24,
			"byteOffset":25752,
			"target":34963
		},
		{
			"buffer":0,
			"byteLength":96,
			"byteOffset":25776,
			"target":34962
		},
		{
			"buffer":0,
			"byteLength":96,
			"byteOffset":25872,
			"target":34962
		},
		{
			"buffer":0,
			"byteLength":24,
			"byteOffset":25968,
			"target":34963
		},
		{
			"buffer":0,
			"byteLength":2400,
			"byteOffset":25992,
			"target":34962
		},
		{
			"buffer":0,
			"byteLength":2400,
			"byteOffset":28392,
			"target":34962
		},
		{
			"buffer":0,
			"byteLength":840,
			"byteOffset":30792,
			"target":34963
		},
		{
			"buffer":0,
			"byteLength":48,
			"byteOffset":31632,
			"target":34962
		},
		{
			"buffer":0,
			"byteLength":48,
			"byteOffset":31680,
			"target":34962
		},
		{
			"buffer":0,
			"byteLength":96,
			"byteOffset":31728,
			"target":34962
		},
		{
			"buffer":0,
			"byteLength":96,
			"byteOffset":31824,
			"target":34962
		},
		{
			"buffer":0,
			"byteLength":24,
			"byteOffset":31920,
			"target":34963
		},
		{
			"buffer":0,
			"byteLength":96,
			"byteOffset":31944,
			"target":34962
		},
		{
			"buffer":0,
			"byteLength":96,
			"byteOffset":32040,
			"target":34962
		},
		{
			"buffer":0,
			"byteLength":24,
			"byteOffset":32136,
			"target":34963
		},
		{
			"buffer":0,
			"byteLength":48,
			"byteOffset":32160,
			"target":34962
		},
		{
			"buffer":0,
			"byteLength":48,
			"byteOffset":32208,
			"target":34962
		},
		{
			"buffer":0,
			"byteLength":9660,
			"byteOffset":32256,
			"target":34962
		},
		{
			"buffer":0,
			"byteLength":9660,
			"byteOffset":41916,
			"target":34962
		},
		{
			"buffer":0,
			"byteLength":288,
			"byteOffset":51576,
			"target":34962
		},
		{
			"buffer":0,
			"byteLength":288,
			"byteOffset":51864,
			"target":34962
		},
		{
			"buffer":0,
			"byteLength":96,
			"byteOffset":52152,
			"target":34962
		},
		{
			"buffer":0,
			"byteLength":96,
			"byteOffset":52248,
			"target":34962
		},
		{
			"buffer":0,
			"byteLength":96,
			"byteOffset":52344,
			"target":34962
		},
		{
			"buffer":0,
			"byteLength":96,
			"byteOffset":52440,
			"target":34962
		},
		{
			"buffer":0,
			"byteLength":96,
			"byteOffset":52536,
			"target":34962
		},
		{
			"buffer":0,
			"byteLength":96,
			"byteOffset":52632,
			"target":34962
		}
	],
	"buffers":[
		{
			"byteLength":52728,
			"uri":"20250316-Portal%20House-001.bin"
		}
	]
}
